<?xml version="1.0" encoding="UTF-8" standalone="no"?>
<!DOCTYPE svg PUBLIC "-//W3C//DTD SVG 1.1//EN" "http://www.w3.org/Graphics/SVG/1.1/DTD/svg11.dtd">
<!-- Created with Vectornator (http://vectornator.io/) -->
<svg height="100%" stroke-miterlimit="10" style="fill-rule:nonzero;clip-rule:evenodd;stroke-linecap:round;stroke-linejoin:round;" version="1.1" viewBox="0 0 60 60" width="100%" xml:space="preserve" xmlns="http://www.w3.org/2000/svg" xmlns:vectornator="http://vectornator.io" xmlns:xlink="http://www.w3.org/1999/xlink">
<defs/>
<g id="Layer-1" vectornator:layerName="Layer 1">
<path d="M8.77598 11.3703L30.4179 47.5417" fill="none" opacity="1" stroke="#377851" stroke-linecap="round" stroke-linejoin="round" stroke-width="4.57301"/>
<path d="M30.6234 47.2748L47.6771 11.0356" fill="none" opacity="1" stroke="#377851" stroke-linecap="round" stroke-linejoin="round" stroke-width="4.57301"/>
<path d="M8.96512 10.865L47.5919 11.0356" fill="none" opacity="1" stroke="#377851" stroke-linecap="round" stroke-linejoin="round" stroke-width="4.57301"/>
<path d="M13.9107 16.0664C13.598 15.441 13.9935 14.2482 13.6549 14.3611C13.4732 14.4216 13.3835 15.6323 13.5696 15.7254C13.7793 15.8302 14.7964 14.2372 14.7208 13.9347C14.6629 13.7033 13.9132 14.5997 13.8254 14.7021C13.7382 14.8039 13.5007 15.1176 13.6123 15.0432C13.8704 14.8711 15.5855 13.2159 15.6587 13.2526C16.1038 13.4751 13.9142 16.9191 15.0618 16.9191C16.3391 16.9191 17.7276 14.02 18.2168 14.02C18.3355 14.02 17.4842 15.1239 17.4494 15.1711C16.8633 15.9665 15.9928 16.9809 15.6587 17.8997C15.606 18.0447 15.4577 18.2499 15.6587 18.2834C16.7466 18.4647 19.3197 15.3078 20.0074 14.5742C20.1975 14.3714 20.6935 13.5084 20.988 13.5084C21.0818 13.5084 20.4599 14.6133 20.4338 14.6595C20.1442 15.1718 18.2072 17.9748 18.7284 18.1981C19.1381 18.3738 20.3887 17.2051 20.5617 17.047C21.7577 15.9535 22.8355 14.7464 24.0151 13.6363C24.2625 13.4033 24.7266 12.5518 25.1662 12.6983C25.6024 12.8437 24.8301 13.6849 24.7398 13.8068C23.9011 14.9391 22.975 16.0254 22.2244 17.2176C22.132 17.3643 21.6838 18.2694 22.1818 18.0702C23.1807 17.6707 24.1374 16.5842 24.953 15.9385C25.9417 15.1558 26.9653 14.3967 27.9374 13.5936C28.0564 13.4954 29.492 12.1627 29.6854 12.4851C30.0324 13.0634 29.0014 13.9545 28.7048 14.2758C28.218 14.8032 25.1697 17.9101 25.3367 18.4113C25.4651 18.7964 26.1595 18.2274 27.2553 17.6013C29.0796 16.5588 30.5486 14.9194 32.3288 13.8068C32.9448 13.4218 33.6525 12.9562 33.6931 12.9968C34.0201 13.3238 32.9815 14.3412 32.7977 14.5316C32.3873 14.9567 29.6268 17.612 29.8133 17.985C30.0274 18.4132 31.408 17.5952 31.604 17.4734C33.4044 16.3542 35.1397 15.1528 36.9333 14.02C37.4237 13.7102 37.93 13.4263 38.4255 13.1247C38.5941 13.022 38.8638 12.6429 38.9371 12.8262C39.1551 13.3712 37.548 14.3682 37.4023 14.489C36.4661 15.2646 35.5108 16.0866 34.6737 16.9617C34.4158 17.2313 33.6851 17.5507 33.9489 17.8144C34.1814 18.047 35.5938 16.9358 35.7395 16.8338C37.0202 15.9374 38.2995 14.9774 39.6192 14.1479C40.0031 13.9066 40.3931 13.6746 40.7704 13.4231C40.8868 13.3455 41.1739 13.114 41.1541 13.2526C41.0999 13.6321 35.0688 18.9675 38.7666 16.4075C38.9676 16.2683 39.1584 16.1144 39.3634 15.9812C39.7272 15.7447 40.1162 15.5474 40.4719 15.299C40.8705 15.0207 41.2331 14.6939 41.6231 14.4037C42.0498 14.0861 43.2889 12.6557 43.84 12.6557C43.9807 12.6557 43.6464 12.8603 43.5416 12.9541C43.3463 13.1288 43.1414 13.2926 42.9447 13.4657C42.7861 13.6053 42.6328 13.7507 42.4757 13.8921C41.4033 14.8572 40.3599 15.8352 39.4061 16.9191C39.3383 16.9962 38.5107 17.857 38.6386 18.1129C38.7242 18.2839 38.9249 17.8593 39.065 17.7292C39.1904 17.6127 39.3202 17.5011 39.4487 17.3881C40.3718 16.5758 41.3566 15.7473 42.1773 14.83C42.3327 14.6563 42.3825 14.3495 42.6036 14.2758C42.8448 14.1954 42.4114 14.7518 42.2626 14.9579C42.156 15.1055 42.043 15.2488 41.9215 15.3843C41.2905 16.0881 40.6049 16.7489 40.0456 17.516C38.7423 19.3034 37.955 21.475 37.1464 23.5274C37.1076 23.6261 36.5887 24.8813 36.6348 25.0196C36.6548 25.0794 36.9379 24.7477 37.4875 23.9538C37.7593 23.5612 38.0785 23.2021 38.3402 22.8027C39.1286 21.5994 39.8138 20.2026 40.4719 18.9229C40.665 18.5475 40.9193 17.4842 41.3673 17.2602C41.4525 17.2176 41.2995 17.442 41.2393 17.516C41.0867 17.7038 40.9072 17.8706 40.7704 18.0702C40.565 18.3697 40.419 18.707 40.2161 19.0082C39.6148 19.9011 39.065 20.6482 38.5107 21.5663C37.3633 23.4667 36.2504 25.4974 35.3558 27.5351C35.0471 28.2382 34.9011 29.4394 34.3326 30.0079C34.0943 30.2461 34.6457 29.4112 34.8016 29.1125C35.2393 28.2735 34.9793 28.9365 35.3558 28.0467C35.7916 27.0167 36.3106 25.9963 36.9333 25.0623C37.0919 24.8243 36.7054 25.5899 36.5496 25.8297C36.2026 26.3635 35.7801 26.8221 35.4411 27.3645C34.5049 28.8625 33.719 30.4088 32.8404 31.9264C32.5619 32.4075 32.2208 32.8507 31.9451 33.3334C31.7937 33.5983 31.6552 34.4163 31.5187 34.1434C31.3035 33.713 32.2935 32.5003 32.4993 32.1822C32.6878 31.8909 33.0962 30.9826 33.0962 31.3295C33.0962 32.2217 32.356 33.262 32.0303 34.0581C31.4735 35.4192 31.1307 36.8423 30.666 38.2363C30.536 38.6265 30.446 39.6501 30.1544 39.9417C30.0519 40.0442 30.2045 39.6559 30.2397 39.5153C30.3862 38.9292 30.2829 39.3145 30.5381 38.4921C30.7737 37.7331 30.9928 36.9805 31.2629 36.2325C31.3499 35.9915 31.4312 35.7485 31.5187 35.5077C31.5557 35.406 31.6124 35.1066 31.6466 35.2093C32.0452 36.405 31.1573 38.5455 30.8366 39.6859C30.7887 39.8561 30.4302 40.9129 30.7939 40.9649C31.1963 41.0224 33.0125 37.9758 33.1814 37.6821C33.3393 37.4075 33.8436 36.3151 33.9489 36.1046C34.0483 35.9056 34.4324 35.6311 34.2473 35.5077C33.9496 35.3092 32.7367 37.4383 32.6698 37.5542C31.8974 38.8931 31.3153 40.2742 30.7087 41.6897C30.6156 41.9068 30.3086 42.624 30.2397 42.9687C30.2247 43.0436 30.1776 43.2905 30.3676 43.1819C31.1636 42.727 32.1463 39.9786 31.5613 39.1743C30.981 38.3762 29.9732 39.3299 29.4296 39.0037C29.3911 38.9806 29.4071 38.916 29.387 38.8758C29.1686 38.439 29.2516 37.8652 29.1312 37.3836C28.9775 36.7688 28.4484 36.189 28.108 35.6782C27.5793 34.8853 26.9429 34.0874 26.6584 33.1628C26.3666 32.2145 26.318 31.0567 25.8057 30.1784C24.9446 28.7022 23.4052 27.6861 22.4802 26.2987C22.0859 25.7072 21.8689 25.0218 21.457 24.4228C20.358 22.8243 19.3763 21.1511 18.2168 19.6051C18.0641 19.4015 17.4691 18.2522 17.0657 18.454C16.6338 18.6699 17.1042 20.1025 17.1936 20.4151C17.4726 21.3918 19.3603 25.9576 20.5617 25.9576C21.782 25.9576 22.0444 23.6109 22.0965 22.8027C22.1203 22.4337 22.1174 22.0633 22.1391 21.6942C22.145 21.5949 22.1391 21.2962 22.1391 21.3957C22.1391 24.4982 21.3718 27.5148 21.7554 30.6474C21.7828 30.871 21.8779 32.7216 22.6934 32.3954C24.7929 31.5556 25.2088 25.6847 25.2088 23.8259C25.2088 22.9348 25.0174 22.029 25.0809 21.1399C25.0818 21.1278 25.2035 20.7083 25.2941 20.7988C25.5592 21.0639 25.2974 22.2267 25.2515 22.4616C24.897 24.273 24.3457 26.06 23.8445 27.8335C23.7437 28.1904 22.7761 30.5981 23.2476 30.5195C24.1815 30.3638 24.4371 28.5407 24.6546 27.8762C25.4549 25.4306 26.1599 22.8999 27.17 20.543C27.5129 19.743 27.741 18.7199 28.1932 17.985C28.2573 17.8809 28.4052 17.6854 28.4917 17.7718C28.7866 18.0667 28.2028 19.1438 28.108 19.4345C27.97 19.8577 27.8551 20.2881 27.7242 20.7136C26.9199 23.3276 26.2425 25.8305 25.7204 28.5157C25.6564 28.8451 24.9281 31.0145 25.3367 31.2869C25.7859 31.5863 27.0223 29.0524 27.2126 28.6436C28.545 25.7814 29.165 22.5447 30.7513 19.8183C31.0005 19.3899 31.6986 17.8827 32.414 17.9423C33.2602 18.0129 32.3256 20.2114 32.2861 20.3299C31.2824 23.3409 30.1738 26.3171 29.0459 29.2831C28.9855 29.4419 27.828 31.8087 28.2785 31.8838C29.2205 32.0408 30.2316 29.4408 30.5381 28.8994C31.9285 26.443 33.0746 23.8444 34.631 21.481C35.3307 20.4185 36.1113 19.4941 36.8906 18.4966C37.0727 18.2636 37.2129 17.999 37.4023 17.7718C37.5247 17.6249 37.9877 17.282 37.8286 17.3881C36.8253 18.057 36.1301 19.4318 35.3984 20.3725C33.6052 22.6781 32.0137 25.1381 30.7087 27.7482C30.2907 28.5842 28.9651 30.7117 29.6428 31.8411C29.6957 31.9293 29.9584 31.8561 29.9839 31.8411C31.081 31.1958 31.5146 29.9822 32.1156 28.942C33.7596 26.0965 35.2795 23.1533 36.8054 20.2446C37.2472 19.4023 37.5728 18.5589 38.0418 17.7292C38.1081 17.6118 38.2819 17.4202 38.1697 17.3455C37.8591 17.1384 36.1701 19.5356 35.9527 19.8183C34.3209 21.9396 32.9789 24.3611 31.8171 26.7677C31.7527 26.9012 31.0869 28.4836 31.3908 28.6862C31.5908 28.8195 32.8515 27.3583 32.883 27.3219C34.3643 25.6128 35.6086 23.8688 36.6775 21.8647C37.4999 20.3226 35.5444 20.0929 34.8868 21.7368" fill="none" opacity="1" stroke="#377851" stroke-linecap="round" stroke-linejoin="round" stroke-width="4.57301"/>
</g>
</svg>
