<?xml version="1.0" encoding="UTF-8" standalone="no"?>
<!DOCTYPE svg PUBLIC "-//W3C//DTD SVG 1.1//EN" "http://www.w3.org/Graphics/SVG/1.1/DTD/svg11.dtd">
<!-- Created with Vectornator (http://vectornator.io/) -->
<svg height="50px" stroke-miterlimit="10" style="fill-rule:nonzero;clip-rule:evenodd;stroke-linecap:round;stroke-linejoin:round;" version="1.1" viewBox="0 0 60 60" width="50px" xml:space="preserve" xmlns="http://www.w3.org/2000/svg" xmlns:vectornator="http://vectornator.io" xmlns:xlink="http://www.w3.org/1999/xlink">
<defs/>
<g id="Layer-1" vectornator:layerName="Layer 1">
<path d="M30.2812 6.6875C17.9958 6.6875 8.03125 16.6521 8.03125 28.9375C8.03125 41.2229 17.9959 51.1875 30.2812 51.1875C42.5666 51.1875 52.5 41.2229 52.5 28.9375C52.5 16.6521 42.5667 6.6875 30.2812 6.6875ZM28.0938 13.0312C32.832 12.9204 38.1043 15.2425 39.1562 19.1875C39.7767 21.5144 39.4095 23.6205 38.1875 25.5C37.3666 26.7625 36.5162 27.5865 34.625 29.1562C34.5434 29.224 34.5495 29.2142 34.4688 29.2812C31.8775 31.4328 31.4363 32.1527 31.9062 33.5625C32.375 34.9687 31.5937 36.5 30.1875 36.9688C28.7813 37.4375 27.2812 36.6874 26.8125 35.2812C26.0343 32.9466 26.2849 30.7925 27.4688 28.875C28.2658 27.584 29.1444 26.723 31.0312 25.1562C31.1132 25.0882 31.1063 25.0986 31.1875 25.0312C33.8389 22.8305 34.3574 22.0198 33.9688 20.5625C33.9037 20.3185 33.5859 19.9736 32.9688 19.5938C32.2036 19.1228 31.1692 18.7246 30.0312 18.5312C28.893 18.3379 27.7697 18.3418 26.875 18.5312C26.1477 18.6852 25.7097 18.9502 25.5625 19.1562C24.701 20.3624 23.0186 20.6428 21.8125 19.7812C20.6064 18.9197 20.326 17.2374 21.1875 16.0312C22.6017 14.0514 25.2508 13.0977 28.0938 13.0312ZM29.5625 40.4375C29.9736 40.4579 30.3648 40.5713 30.7188 40.75C30.729 40.7538 30.7398 40.7461 30.75 40.75C30.8325 40.7815 30.9193 40.7409 31 40.7812C31.2137 40.8881 31.2665 41.1303 31.4375 41.2812C31.4857 41.3251 31.5471 41.3596 31.5938 41.4062C31.6297 41.4422 31.6227 41.4938 31.6562 41.5312C32.0544 41.9853 32.2488 42.465 32.2812 43.0625C32.2985 43.2546 32.274 43.4023 32.25 43.5938C32.2094 43.8677 32.3181 44.1451 32.1875 44.4062C32.0493 44.6826 31.8196 44.8653 31.625 45.0938C31.6011 45.1196 31.6188 45.1624 31.5938 45.1875C31.5834 45.1979 31.573 45.2086 31.5625 45.2188C31.0625 45.7554 30.4279 46.1403 29.5 46.125C28.1225 46.1023 27.2415 45.2416 26.875 44.2188C26.4382 42.9998 26.6104 41.4607 28.2812 40.6875C28.7249 40.4822 29.1514 40.4171 29.5625 40.4375Z" fill="#000000" fill-rule="nonzero" opacity="1" stroke="#000000" stroke-linecap="butt" stroke-linejoin="round" stroke-width="1.64324"/>
</g>
</svg>
