<?xml version="1.0" encoding="UTF-8" standalone="no"?>
<!DOCTYPE svg PUBLIC "-//W3C//DTD SVG 1.1//EN" "http://www.w3.org/Graphics/SVG/1.1/DTD/svg11.dtd">
<!-- Created with Vectornator (http://vectornator.io/) -->
<svg height="50px" stroke-miterlimit="10" style="fill-rule:nonzero;clip-rule:evenodd;stroke-linecap:round;stroke-linejoin:round;" version="1.1" viewBox="0 0 60 60" width="50px" xml:space="preserve" xmlns="http://www.w3.org/2000/svg" xmlns:vectornator="http://vectornator.io" xmlns:xlink="http://www.w3.org/1999/xlink">
<defs/>
<g id="Layer-1" vectornator:layerName="Layer 1">
<path d="M8.5625 8.09375C7.40816 8.09375 6.46875 9.03316 6.46875 10.1875L6.46875 50.9375C6.46875 52.0918 7.40816 53.0313 8.5625 53.0312L14.0312 53.0312C11.5036 48.4487 12.8369 41.3474 17.5312 38.8438C19.1471 37.9819 20.7971 37.7234 23.0312 37.7188C23.3707 37.718 23.6294 37.7395 24.1875 37.75C25.0957 37.7671 25.4497 37.7414 25.8125 37.7188C31.8971 37.3385 36.8298 37.6474 40.4375 39.25C46.1051 41.7676 46.907 46.9774 43.2812 53.0312L51.7188 53.0312C52.8731 53.0312 53.8125 52.0918 53.8125 50.9375L53.8125 10.1875C53.8125 9.03316 52.8731 8.09375 51.7188 8.09375L8.5625 8.09375ZM27.9688 19.8125C28.9199 19.732 29.9222 19.8009 30.9688 20.0625C31.4793 20.1901 31.8847 20.5065 32.3125 20.7812C32.9068 20.9633 33.4652 21.236 34 21.625C34.8076 22.2123 35.5711 22.966 36.2188 23.9375C36.3362 24.1137 36.3532 24.3131 36.4375 24.5C36.4613 24.5427 36.5079 24.5504 36.5312 24.5938C36.6108 24.7415 36.6187 24.8831 36.6875 25.0312C36.7219 25.1573 36.7603 25.2786 36.7812 25.4062C38.246 29.0262 36.7156 32.6779 33.4062 34.625C30.1864 36.5195 26.0374 36.4792 23.25 33.9062C17.4776 28.5779 21.3105 20.3763 27.9688 19.8125Z" fill="#000000" fill-rule="nonzero" opacity="1" stroke="#000000" stroke-linecap="butt" stroke-linejoin="round" stroke-width="1.64324"/>
</g>
</svg>
