<?xml version="1.0" encoding="UTF-8" standalone="no"?>
<!DOCTYPE svg PUBLIC "-//W3C//DTD SVG 1.1//EN" "http://www.w3.org/Graphics/SVG/1.1/DTD/svg11.dtd">
<!-- Created with Vectornator (http://vectornator.io/) -->
<svg height="50px" stroke-miterlimit="10" style="fill-rule:nonzero;clip-rule:evenodd;stroke-linecap:round;stroke-linejoin:round;" version="1.1" viewBox="0 0 60 60" width="50px" xml:space="preserve" xmlns="http://www.w3.org/2000/svg" xmlns:vectornator="http://vectornator.io" xmlns:xlink="http://www.w3.org/1999/xlink">
<defs/>
<g id="Layer-2" vectornator:layerName="Layer 2">
<path d="M31.9688 5.3125C31.4289 5.42287 30.8535 5.625 30.4688 5.625C29.1601 5.625 28.0381 5.79053 26.7812 6C26.5525 6.03812 25.4444 5.8959 25.3125 6.09375C25.1168 6.38733 25.1904 7.67009 25.125 8.0625C24.8525 9.69773 23.0107 12.0074 21.3125 12.25C19.6327 12.49 18.1064 11.332 16.6562 10.6875C16.2607 10.5117 15.8129 9.62473 15.3125 10C14.6442 10.5012 14.2193 11.5853 13.6875 12.25C12.7531 13.418 11.3666 14.3834 10.375 15.375C10.2177 15.5323 11.6152 16.7194 11.7188 16.8438C12.4176 17.6824 13.6037 19.5441 13.375 20.6875C12.97 22.7124 9.84781 24.249 8.09375 24.6875C7.38965 24.8635 6.29548 24.7036 5.6875 24.9062C5.47238 24.978 5.98931 25.8569 6.03125 25.9688C6.26461 26.591 6.26272 27.3205 6.34375 27.9688C6.54907 29.6113 6.00599 31.5552 6.40625 33.1562C6.46463 33.3898 8.5613 33.0783 8.84375 33.0312C10.6427 32.7314 13.1254 33.0171 13.7188 35.0938C14.3936 37.4556 13.3457 39.101 12.1875 41.0312C11.5632 42.0717 9.77742 42.0886 10.7188 43.3438C11.8298 44.8252 13.309 46.9047 15.0625 47.6562C15.4599 47.8266 16.0078 48.5157 16.5 48.1875C17.2494 47.6879 17.6166 46.5809 18.1562 45.9062C19.0619 44.7741 21.0743 43.8265 22.5 44.4375C24.3001 45.209 24.875 47.9289 24.875 49.6562C24.875 50.4033 24.7188 51.1184 24.7188 51.8438C24.7187 51.8827 24.6248 52.0728 24.6562 52.0938C24.7915 52.1839 25.3965 52.1598 25.5625 52.1875C27.6011 52.5273 29.5963 52.6562 31.7188 52.6562C32.029 52.6562 33.7061 52.7314 33.9062 52.5312C34.1539 52.2836 33.8146 50.5501 33.875 50.1875C34.1903 48.296 34.5467 46.1626 36.5938 45.3438C38.1667 44.7146 40.0464 46.3933 41.1562 47.2812C41.2595 47.3639 42.0363 48.5625 42.0625 48.5625C42.135 48.5625 43.6907 47.0517 44 46.875C45.4555 46.0433 46.3224 44.6776 47.5 43.5C47.7311 43.2689 48.839 42.731 48.75 42.375C48.6748 42.0741 47.1071 40.622 46.7812 40.1875C45.8734 38.9771 46.1511 35.8314 46.875 34.625C47.8128 33.062 49.545 32.6814 51.3438 32.9062C51.4676 32.9217 52.872 33.2984 52.9062 33.2812C53.0228 33.223 52.8844 31.8811 52.9062 31.75C53.1573 30.2439 52.9375 28.5428 52.9375 27C52.9375 26.7846 53.0958 25.4083 52.9688 25.2812C52.926 25.2385 51.4406 25.3085 51.25 25.2812C49.7334 25.0646 46.8426 23.7141 46.4375 22.0938C46.0604 20.5854 47.3771 17.088 47.9375 15.5938C48.099 15.1631 49.4057 13.6557 49.1562 13.4062C48.7442 12.9942 47.9689 12.9376 47.4688 12.6875C46.4182 12.1622 45.5423 11.3351 44.4688 10.875C43.9332 10.6455 43.6508 10.1678 43.2188 9.84375C43.0078 9.68553 42.8427 9.09478 42.6562 9.28125C42.2249 9.71259 42.2199 10.7488 41.7188 11.25C40.6504 12.3183 38.2645 12.9527 36.8125 12.4688C36.4093 12.3344 36.1528 11.8706 35.9062 11.5625C34.9054 10.3115 34.2859 8.85774 33.7812 7.34375C33.5912 6.77366 33.6327 5.96403 33.2812 5.5C33.0283 5.16609 32.5086 5.20213 31.9688 5.3125ZM30.375 21.5625C31.149 21.664 31.9377 21.9252 32.6562 22.3125C35.5502 23.8721 36.9858 27.3482 35 30.4688C34.8583 30.6914 34.6567 30.7782 34.5 30.9688C34.4724 31.0084 34.4664 31.0544 34.4375 31.0938C34.2979 31.2841 34.121 31.3665 33.9688 31.5312C33.8779 31.6224 33.8186 31.7259 33.7188 31.8125C33.6604 31.8631 33.5903 31.8588 33.5312 31.9062C33.5088 31.9228 33.4914 31.9527 33.4688 31.9688C33.3329 32.0651 33.2348 32.2639 33.0938 32.3438C33.0876 32.348 33.0687 32.3395 33.0625 32.3438C31.0681 33.707 28.5112 33.4991 26.5625 32.0312C24.3644 30.3755 23.2594 27.484 24.5312 24.7812C25.7019 22.2936 28.0531 21.258 30.375 21.5625Z" fill="#000000" fill-rule="nonzero" opacity="1" stroke="#000000" stroke-linecap="round" stroke-linejoin="round" stroke-width="1.64324"/>
</g>
</svg>
