<?xml version="1.0" encoding="UTF-8" standalone="no"?>
<!DOCTYPE svg PUBLIC "-//W3C//DTD SVG 1.1//EN" "http://www.w3.org/Graphics/SVG/1.1/DTD/svg11.dtd">
<!-- Created with Vectornator (http://vectornator.io/) -->
<svg height="100%" stroke-miterlimit="10" style="fill-rule:nonzero;clip-rule:evenodd;stroke-linecap:round;stroke-linejoin:round;" version="1.1" viewBox="0 0 60 60" width="100%" xml:space="preserve" xmlns="http://www.w3.org/2000/svg" xmlns:vectornator="http://vectornator.io" xmlns:xlink="http://www.w3.org/1999/xlink">
<defs/>
<g id="Layer-3" vectornator:layerName="Layer 3">
<path d="M23.7881 16.9958C22.6668 16.4351 20.6165 16.9958 19.3457 16.9958C18.3172 16.9958 13.1495 16.7865 12.6819 17.2541C12.2387 17.6973 12.1961 20.9546 12.1137 21.6966C11.5454 26.8108 11.1806 31.9915 11.6488 37.142C11.8677 39.5506 11.8155 41.8529 12.7852 44.1157C13.0712 44.7828 13.1265 45.5934 13.6634 46.1303C14.9658 47.4327 17.7347 47.2285 19.449 47.4734C23.7744 48.0913 28.5807 47.4734 32.9831 47.4734C35.647 47.4734 38.3442 47.5589 40.9899 47.3184C41.8445 47.2407 43.5233 47.4711 44.141 46.8535C44.4933 46.5012 44.2334 45.6385 44.2959 45.2005C44.4628 44.0321 44.6667 42.9057 44.8125 41.7395C44.8951 41.079 44.5542 40.5059 44.5542 39.8798" fill="none" opacity="1" stroke="#000000" stroke-linecap="round" stroke-linejoin="round" stroke-width="2.58972"/>
<path d="M35.1146 19.8271C35.4297 19.8732 35.1146 18.874 35.1146 18.5405C35.1146 17.2622 34.9372 15.9618 34.9372 14.6807C34.9372 14.4875 34.8714 13.1723 35.1146 13.1723C35.8158 13.1723 38.258 14.8734 38.93 15.2575C41.7976 16.8961 45.0836 17.3541 47.9361 18.9841C48.2892 19.1859 51.4922 20.875 51.5297 21.0249C51.6981 21.6987 49.9599 22.3391 49.622 22.7108C49.0014 23.3935 48.1827 23.7064 47.5368 24.3523C46.551 25.3382 45.4562 26.2965 44.4313 27.236C43.3735 28.2056 42.5275 29.4937 41.6363 30.6077C41.3053 31.0215 40.8474 31.3015 40.5715 31.7612C40.405 32.0388 39.7745 33.3409 39.4181 33.2696C38.2216 33.0304 38.0871 28.5813 38.0871 27.5466C38.0871 27.2529 38.195 25.8924 37.8653 25.7276C37.7745 25.6822 34.9675 26.5691 34.7154 26.6149C34.0749 26.7314 33.2099 27.1896 32.6746 27.5466C31.7231 28.1809 30.8588 29.2728 30.1458 30.1641C28.4221 32.3187 25.5905 34.4417 25.2213 37.3956C24.984 39.2938 25.8318 41.4483 26.9515 42.9412C27.2925 43.3959 27.7132 43.6345 28.1493 43.9616C28.2043 44.0029 28.8797 44.3642 28.8592 44.4053C28.8066 44.5105 28.188 44.286 28.105 44.2722C27.6728 44.2001 27.1997 44.3129 26.774 44.2278C25.5241 43.9778 25.2263 42.7688 24.467 42.0096C21.9207 39.4632 20.6073 36.639 20.6073 32.9591C20.6073 31.6574 21.0056 30.2117 21.3615 28.9662C21.8411 27.2878 22.4464 25.7316 23.2248 24.1748C25.2793 20.0658 31.0596 19.2334 35.1146 19.8271Z" fill="#000000" fill-rule="nonzero" opacity="1" stroke="#000000" stroke-linecap="round" stroke-linejoin="round" stroke-width="1.64324"/>
</g>
<g id="Layer-2" vectornator:layerName="Layer 2"/>
</svg>
